HIERARCHY
ROOT Hips
{
    OFFSET 0.000000 0.000000 0.000000
    CHANNELS 6 Xposition Yposition Zposition Zrotation Xrotation Yrotation
        JOINT Chest
        {
            OFFSET -0.000000 31.571314 -0.000000
            CHANNELS 3 Zrotation Xrotation Yrotation
            JOINT Neck
            {
                OFFSET -0.000000 23.394884 0.000000
                CHANNELS 3 Zrotation Xrotation Yrotation
                JOINT Head
                {
                    OFFSET -0.000000 10.877778 0.000000
                    CHANNELS 3 Zrotation Xrotation Yrotation
                    End Site
                    {
                        OFFSET -0.000000 16.811111 0.000000
                    }
                }
            }
            JOINT LeftCollar
            {
                OFFSET -0.000000 23.394884 0.000000
                CHANNELS 3 Zrotation Xrotation Yrotation
                JOINT LeftShoulder
                {
                    OFFSET 21.500002 -0.000000 0.000000
                    CHANNELS 3 Zrotation Xrotation Yrotation
                    JOINT LeftElbow
                    {
                        OFFSET 24.792776 0.000000 0.000000
                        CHANNELS 3 Zrotation Xrotation Yrotation
                        JOINT LeftWrist
                        {
                            OFFSET 26.439411 0.000000 0.000000
                            CHANNELS 3 Zrotation Xrotation Yrotation
                            End Site
                            {
                                OFFSET 0.000000 -14.833334 0.000000
                            }
                        }
                    }
                }
            }
            JOINT RightCollar
            {
                OFFSET -0.000000 23.394884 0.000000
                CHANNELS 3 Zrotation Xrotation Yrotation
                JOINT RightShoulder
                {
                    OFFSET -21.500002 0.000000 0.000000
                    CHANNELS 3 Zrotation Xrotation Yrotation
                    JOINT RightElbow
                    {
                        OFFSET -24.792776 0.000000 0.000000
                        CHANNELS 3 Zrotation Xrotation Yrotation
                        JOINT RightWrist
                        {
                            OFFSET -26.439411 0.000000 0.000000
                            CHANNELS 3 Zrotation Xrotation Yrotation
                            End Site
                            {
                                OFFSET -0.000000 -14.833334 0.000000
                            }
                        }
                    }
                }
            }
        }
    JOINT LeftHip
    {
        OFFSET 11.866667 0.000000 0.000000
        CHANNELS 3 Zrotation Xrotation Yrotation
        JOINT LeftKnee
        {
            OFFSET -0.000000 -38.580112 0.000000
            CHANNELS 3 Zrotation Xrotation Yrotation
            JOINT LeftAnkle
            {
                OFFSET -0.000000 -41.767254 0.000000
                CHANNELS 3 Zrotation Xrotation Yrotation
                End Site
                {
                    OFFSET -0.000000 -4.944444 16.811111
                }
            }
        }
    }
    JOINT RightHip
    {
        OFFSET -11.866667 0.000000 0.000000
        CHANNELS 3 Zrotation Xrotation Yrotation
        JOINT RightKnee
        {
            OFFSET -0.000000 -38.580112 0.000000
            CHANNELS 3 Zrotation Xrotation Yrotation
            JOINT RightAnkle
            {
                OFFSET -0.000000 -41.767254 0.000000
                CHANNELS 3 Zrotation Xrotation Yrotation
                End Site
                {
                    OFFSET -0.000000 -4.944444 16.811111
                }
            }
        }
    }
}
MOTION
Frames:    14
Frame Time:    0.010000
-76.014069    89.894424    -49.014698    0.163124    -3.129019    41.558716    8.183750    10.176357    8.039608    -5.926792    -7.559006    -2.828323    3.745773    -6.153685    -2.314953    1.983758    0.152224    7.638327    174.116104    6.230131    -47.076019    97.021286    -7.500420    -6.659936    33.586914    -19.642809    94.694588    10.772497    0.678467    7.481981    -61.909195    45.194897    122.726158    -53.164333    -6.982627    13.903492    -135.080536    38.038242    -38.042397    10.883207    -1.237881    11.527200    -6.073301    16.702972    7.520428    -14.751468    -10.197605    14.907367    -2.623249    -6.150272    -0.382903    3.662459    22.179085    0.353159    -0.972610    -10.969984    -26.048716    
-75.998474    89.846596    -48.994007    0.069759    -3.116676    41.786194    7.615021    9.631651    8.125170    0.134264    -6.684870    -4.619049    -0.969581    -7.367456    -4.687571    4.054688    0.230759    3.265924    172.900299    5.574203    -45.732998    97.017662    -8.442472    -8.287772    34.302166    -20.355991    96.220131    12.437363    0.587232    3.165877    -61.185001    44.447216    122.012993    -53.402641    -6.909832    13.451796    -134.860718    38.024818    -38.598579    11.084945    -1.514666    11.849885    -6.118780    17.081362    6.860392    -14.636188    -10.347178    15.006481    -2.552265    -6.146750    -0.484792    3.644964    22.129477    0.171505    -0.937880    -10.974334    -25.995884    
-75.927223    89.830299    -48.992752    0.135923    -3.194867    42.100838    7.472704    9.507262    8.029498    0.135238    -6.431481    -4.821817    -0.493383    -7.356285    -4.860965    4.063995    0.159846    3.209480    172.835144    5.501509    -45.695961    97.137810    -8.877537    -8.198183    33.565159    -20.361771    95.105972    12.707062    0.475367    3.201072    -60.552395    45.088787    121.526787    -53.367012    -7.019922    14.111387    -135.369171    38.213600    -37.971710    11.114845    -1.603729    11.641387    -6.159927    17.297527    6.731132    -14.503242    -10.345070    15.012335    -2.599874    -5.927124    -0.612025    3.694092    22.058125    0.064920    -0.923875    -11.007668    -26.076262    
-75.895164    89.822289    -48.989162    0.149651    -3.239932    42.309021    7.440674    9.435300    7.997140    -0.033155    -6.260962    -4.921976    -0.254011    -7.417703    -4.935772    4.016939    0.117543    3.295607    172.811661    5.503093    -45.710262    97.192429    -9.087157    -8.189131    33.285538    -20.294167    94.524071    12.786979    0.427512    3.343901    -60.289696    45.344349    121.305748    -53.290001    -7.147670    14.452437    -135.564499    38.112598    -37.737980    11.185483    -1.703553    11.651884    -6.187093    17.504351    6.510833    -14.434772    -10.395862    15.006826    -2.600132    -5.805540    -0.702701    3.708817    22.010002    -0.019437    -0.915753    -11.021852    -26.108389    
-75.857986    89.816193    -48.987274    0.169461    -3.290071    42.549477    7.379617    9.334721    7.952802    -0.124629    -6.028333    -5.057564    -0.074920    -7.519735    -5.054800    4.006039    0.097097    3.330610    172.782104    5.510703    -45.712170    97.262550    -9.204760    -8.201238    33.086861    -20.378004    94.183846    12.914689    0.435097    3.454291    -59.878578    45.638485    120.930527    -53.218540    -7.297754    14.827776    -135.736206    37.896530    -37.476486    11.256385    -1.813475    11.643983    -6.216717    17.730274    6.290246    -14.364010    -10.451355    14.986476    -2.606320    -5.665196    -0.808884    3.727364    21.957354    -0.109009    -0.909401    -11.039759    -26.149555    
-75.815331    89.811455    -48.986904    0.194633    -3.343573    42.818634    7.302763    9.216034    7.898998    -0.222937    -5.758905    -5.204687    0.126874    -7.638697    -5.184954    3.999579    0.131041    3.376800    172.758560    5.569959    -45.706379    97.354973    -9.289985    -8.219596    32.939098    -20.477665    93.976723    13.062853    0.416185    3.588369    -59.413662    45.993553    120.523643    -53.211548    -7.463524    15.146620    -135.830933    37.525745    -37.231880    11.324439    -1.930850    11.615075    -6.247726    17.967815    6.078095    -14.292275    -10.510646    14.949251    -2.618071    -5.509618    -0.928614    3.748918    21.901604    -0.203996    -0.907138    -11.060308    -26.198278    
-75.767159    89.807365    -48.987656    0.224069    -3.398868    43.112064    7.215842    9.084210    7.839550    -0.327509    -5.469681    -5.364870    0.343154    -7.762575    -5.325037    4.002945    0.111424    3.432386    172.731003    5.579497    -45.712669    97.384331    -9.403698    -8.351539    32.799816    -20.502321    93.896606    13.217957    0.445945    3.742920    -58.793678    46.395477    119.962692    -53.106251    -7.649981    15.637086    -135.986588    37.156727    -36.897968    11.387696    -2.052631    11.566916    -6.278911    18.210041    5.876716    -14.219757    -10.573644    14.895676    -2.634059    -5.342567    -1.058361    3.772284    21.844101    -0.306300    -0.912454    -11.081413    -26.251762    
-75.713593    89.803207    -48.988739    0.256956    -3.455251    43.424973    7.124998    8.945426    7.778462    -0.436972    -5.178703    -5.536540    0.568155    -7.878655    -5.476534    4.009013    0.131610    3.494858    172.703934    5.633225    -45.701889    97.439499    -9.555974    -8.507948    32.703983    -20.374626    93.879639    13.373689    0.490707    3.914767    -58.055798    46.829319    119.294426    -53.009632    -7.864349    16.137884    -136.119308    36.689720    -36.533630    11.445269    -2.174935    11.505889    -6.307908    18.451433    5.681389    -14.146825    -10.640944    14.828063    -2.652191    -5.166749    -1.192876    3.796491    21.786013    -0.419137    -0.927606    -11.101536    -26.307838    
-75.654686    89.798279    -48.989086    0.293541    -3.513590    43.752457    7.035812    8.805966    7.720106    -0.548704    -4.898774    -5.719207    0.795008    -7.978366    -5.639960    4.020795    0.104306    3.560076    172.663620    5.648653    -45.695648    97.420616    -9.782165    -8.791180    32.621361    -20.093102    93.960472    13.527781    0.473456    4.099467    -57.305893    47.301186    118.642769    -52.979053    -8.085036    16.561172    -136.192230    36.148529    -36.183144    11.497279    -2.291924    11.443177    -6.331028    18.687693    5.479275    -14.074675    -10.713552    14.750962    -2.670389    -4.982517    -1.325095    3.821798    21.727972    -0.548416    -0.951772    -11.120734    -26.363455    
-75.590256    89.792099    -48.987831    0.335260    -3.575170    44.090607    6.952703    8.672477    7.668633    -0.659091    -4.639524    -5.913714    1.015449    -8.056753    -5.814806    4.028091    0.132796    3.622608    172.612488    5.726277    -45.666248    97.417854    -10.067057    -9.086740    32.579945    -19.657881    94.048973    13.664513    0.503319    4.289627    -56.477596    47.748726    117.901024    -52.829025    -8.306376    17.128288    -136.372177    35.755802    -35.739662    11.542891    -2.396766    11.387686    -6.344016    18.914053    5.256835    -14.005424    -10.791937    14.669970    -2.688254    -4.789186    -1.447086    3.850276    21.671305    -0.702661    -0.981794    -11.139954    -26.414093    
-75.519775    89.784454    -48.984806    0.384730    -3.640809    44.437618    6.879235    8.551224    7.627698    -0.765872    -4.405086    -6.119555    1.221628    -8.116099    -6.002788    4.031295    0.113178    3.675853    172.533585    5.765868    -45.641193    97.325539    -10.425058    -9.492378    32.542103    -19.134441    94.175209    13.777710    0.546360    4.476893    -55.722466    48.105099    117.215996    -52.728107    -8.527320    17.565302    -136.519348    35.399448    -35.332047    11.578842    -2.482820    11.340239    -6.342822    19.124393    5.006036    -13.942477    -10.875757    14.590777    -2.708491    -4.586668    -1.550869    3.886742    21.620209    -0.891021    -1.014250    -11.160698    -26.456270    
-75.442734    89.775375    -48.980747    0.445042    -3.709718    44.794941    6.817824    8.447556    7.599724    -0.867430    -4.197651    -6.338798    1.405836    -8.162279    -6.205672    4.016928    0.140285    3.710642    172.428452    5.859064    -45.592960    97.251099    -10.817931    -9.878364    32.528584    -18.570168    94.243294    13.860519    0.572815    4.651045    -55.176914    48.330948    116.721413    -52.708382    -8.704479    17.802954    -136.600128    35.144730    -35.035492    11.598772    -2.545875    11.288009    -6.324864    19.310997    4.731472    -13.890285    -10.963135    14.517803    -2.736863    -4.377764    -1.630272    3.938068    21.583439    -1.121892    -1.044885    -11.185709    -26.489437    
-75.359024    89.765129    -48.977119    0.519334    -3.779647    45.166019    6.769141    8.364741    7.585478    -0.963420    -4.015965    -6.572495    1.562326    -8.205770    -6.426013    3.985008    0.103876    3.720300    172.279526    5.900170    -45.547939    97.097610    -11.258014    -10.347166    32.512135    -18.049557    94.327293    13.902436    0.610662    4.804202    -54.913097    48.370964    116.469215    -52.735832    -8.817106    17.851702    -136.641602    35.086807    -34.871002    11.594232    -2.585063    11.207612    -6.289205    19.466831    4.448689    -13.851906    -11.051628    14.455097    -2.781109    -4.168589    -1.681659    4.012096    21.574018    -1.401458    -1.067973    -11.219775    -26.515461    
-75.269440    89.754120    -48.975594    0.609315    -3.847279    45.553932    6.731802    8.302976    7.584242    -1.051547    -3.856089    -6.823307    1.686282    -8.258256    -6.665344    3.923674    0.139546    3.701304    172.095612    6.021738    -45.466869    97.007324    -11.698630    -10.742669    32.515881    -17.606077    94.324928    13.905916    0.576571    4.929528    -55.103748    48.215942    116.642616    -52.964222    -8.823369    17.500690    -136.488678    35.135254    -35.000874    11.557158    -2.603544    11.073514    -6.235755    19.588024    4.177791    -13.827528    -11.139478    14.407368    -2.848454    -3.968667    -1.703877    4.116133    21.606409    -1.733930    -1.076449    -11.268416    -26.536961    
